<?xml version="1.0" encoding="UTF-8" standalone="no"?>
<svg
   width="7150"
   height="1750"
   viewBox="0 0 7150 1750"
   version="1.1"
   xml:space="preserve"
   style="clip-rule:evenodd;fill-rule:evenodd;stroke-miterlimit:1.5"
   id="svg81"
   xmlns="http://www.w3.org/2000/svg"
   xmlns:svg="http://www.w3.org/2000/svg"><rect
     id="Artboard1"
     x="0"
     y="0"
     width="8000"
     height="3015.3501"
     style="fill:none" /><g
     id="g71"
     transform="translate(-531.53153,-459.45946)"><g
       id="g21"
       transform="translate(-18.018018,-36.036036)"><path
         d="m 1410.46,1269.79 c 0,0 84.842,-87.579 192.372,-198.579 74.834,-77.248 96.199,-191.769 54.254,-290.804 -41.946,-99.035 -139.065,-163.372 -246.617,-163.372 h -0.018 c -107.552,0 -204.671,64.337 -246.617,163.372 -41.945,99.035 -20.58,213.556 54.254,290.804 107.53,111 192.372,198.579 192.372,198.579 z"
         style="fill:#db261e"
         id="path1" /><clipPath
         id="_clip1"><path
           d="m 1410.46,1269.79 c 0,0 84.842,-87.579 192.372,-198.579 74.834,-77.248 96.199,-191.769 54.254,-290.804 -41.946,-99.035 -139.065,-163.372 -246.617,-163.372 h -0.018 c -107.552,0 -204.671,64.337 -246.617,163.372 -41.945,99.035 -20.58,213.556 54.254,290.804 107.53,111 192.372,198.579 192.372,198.579 z"
           id="path2" /></clipPath><g
         clip-path="url(#_clip1)"
         id="g3"><path
           d="m 1527.35,1142.56 c -2.721,-1.933 -8.798,-4.762 -13.653,2.149 -7.87,11.288 -13.529,11.288 -6.757,22.56 6.757,11.287 27.074,0 19.189,12.416 -7.901,12.401 -12.432,5.628 -18.06,18.045 -5.644,12.4 3.371,21.43 -9.03,20.301 -12.401,-1.128 -27.059,1.129 -18.029,-11.272 9.014,-12.416 13.529,-12.416 13.529,-25.945 0,-13.545 -1.129,-21.431 3.371,-34.976 4.515,-13.529 7.917,-32.702 16.916,-33.831 0,0 12.401,6.772 12.401,14.658 0,7.901 -5.613,10.159 0,15.787 z m 0,0 c 1.67,1.191 2.041,2.026 0,0 z m -279.82,-110.632 c -12.416,2.257 -14.658,11.272 -23.688,7.901 -9.03,-3.401 -16.916,2.242 -18.044,-10.159 -1.129,-12.4 -7.901,-32.702 -4.515,-38.346 3.386,-5.644 -18.045,-10.158 -4.515,-19.173 13.545,-9.03 21.43,-7.901 28.203,-25.945 6.757,-18.045 12.4,-15.803 14.658,-33.847 2.258,-18.045 1.129,-27.059 1.129,-27.059 0,0 -1.129,-23.688 4.515,-37.218 2.876,-6.927 3.711,-8.535 4.87,-10.576 1.129,-1.948 2.552,-4.267 6.402,-11.983 7.901,-15.787 6.772,-30.445 12.416,-19.173 5.628,11.272 4.515,24.817 7.886,20.301 3.386,-4.514 7.901,-12.415 1.128,-27.074 -6.757,-14.658 3.387,-30.445 -5.643,-36.089 -9.015,-5.643 -9.015,-5.643 2.257,-16.915 11.288,-11.288 10.159,-16.916 13.545,-29.332 3.386,-12.401 10.143,-23.688 18.045,-33.831 7.901,-10.159 10.158,11.271 23.688,-2.258 13.529,-13.545 3.386,-13.545 14.658,-22.559 11.272,-9.03 -1.129,-11.288 13.529,-15.787 14.674,-4.515 19.189,10.143 28.203,4.499 9.03,-5.628 14.659,-15.787 14.659,-4.499 0,11.272 -5.629,19.173 12.416,19.173 18.044,0 15.787,-5.644 29.332,-1.129 6.432,2.149 10.313,0.974 13.823,0.247 3.881,-0.788 7.298,-1.067 13.22,4.268 11.303,10.143 30.461,20.302 41.733,12.401 2.752,-1.902 4.391,-3.355 5.659,-4.407 3.927,-3.278 3.772,-2.66 19.173,-0.108 20.302,3.386 24.817,11.287 37.218,4.515 12.4,-6.757 15.786,-9.014 24.816,-9.014 9.015,0 13.53,-9.031 22.544,-18.045 9.03,-9.03 -3.371,-19.189 9.03,-20.317 12.416,-1.129 19.173,-4.5 24.817,-16.916 5.643,-12.401 13.529,-11.272 16.916,-5.644 3.386,5.644 9.03,6.773 5.644,15.803 -3.387,9.014 -12.401,4.515 -12.401,16.915 0,12.401 -9.03,22.56 -19.189,30.461 -10.143,7.885 -21.415,4.499 -22.559,15.787 -1.114,11.272 16.931,15.787 0,21.43 -16.9,5.629 -16.9,-1.128 -36.089,6.757 -19.173,7.901 -22.56,18.045 -38.346,11.288 l -0.418,-0.201 c -15.431,-6.835 -20.023,-20.086 -33.429,-17.844 -13.53,2.243 -13.53,-7.901 -34.945,0 -21.43,7.886 -21.43,-5.643 -38.362,1.129 -16.915,6.757 -16.915,-4.515 -28.187,-2.257 -11.272,2.257 -5.644,18.044 -19.174,10.143 -3.71,-2.165 -6.88,-3.696 -9.833,-4.84 -7.809,-3.015 -13.87,-3.046 -22.885,-3.046 -12.4,0 -22.543,-7.901 -30.445,-9.03 -7.901,-1.128 -4.515,2.258 -12.4,7.901 -7.902,5.629 -5.66,-2.257 -13.545,14.658 -7.901,16.917 -11.272,23.689 -13.53,39.476 -2.257,15.787 2.258,12.4 1.114,30.46 -1.114,18.045 2.257,20.302 12.416,27.059 10.143,6.772 19.173,1.129 22.559,13.545 3.386,12.401 6.772,13.53 13.53,24.817 6.772,11.272 13.544,5.628 23.688,5.628 10.158,0 21.43,-10.143 24.817,-16.915 3.386,-6.773 4.514,-11.272 12.416,-19.174 7.886,-7.901 6.757,-6.772 21.415,-2.257 14.673,4.515 23.688,4.515 29.332,-4.515 5.644,-9.03 4.515,-13.53 19.173,-9.03 14.658,4.515 21.43,4.515 24.817,1.144 3.371,-3.386 -4.515,-2.257 3.371,-9.03 7.901,-6.772 3.401,-16.915 20.317,-10.159 16.916,6.773 27.059,7.902 27.059,18.045 0,10.159 -11.272,11.287 -6.757,18.06 4.499,6.757 -14.658,5.644 -19.173,-3.387 -4.515,-9.029 -5.644,-11.272 -15.787,-3.386 -10.159,7.902 -3.402,4.515 -15.803,19.173 -12.4,14.659 -18.044,14.659 -22.574,24.817 -4.5,10.144 -10.128,7.902 -23.673,14.658 -13.53,6.773 -10.143,7.886 -21.415,14.659 -11.288,6.772 -14.674,0 -22.56,-1.114 -7.901,-1.144 -21.446,-4.514 -14.674,6.758 6.773,11.287 13.53,24.816 19.174,29.331 5.644,4.515 14.658,-4.515 24.817,12.401 10.143,16.916 3.386,12.416 13.545,24.817 10.143,12.401 13.514,14.658 18.044,20.302 4.499,5.644 10.143,3.386 3.371,15.787 l -1.052,2.536 c -2.504,8.86 15.107,3.633 7.824,9.88 -7.901,6.757 -14.673,3.371 -16.915,13.529 -2.258,10.143 -9.03,14.658 6.772,23.689 15.787,9.014 12.401,13.529 20.302,21.43 7.886,7.886 22.559,10.143 20.286,19.173 -2.257,9.015 -11.272,0 -16.915,7.901 -5.629,7.886 -16.931,7.886 -29.332,21.416 -12.385,13.545 2.273,21.43 -6.757,25.945 -9.03,4.515 -15.787,-7.901 -24.817,-6.757 -9.015,1.113 -20.302,-2.257 -18.045,-11.287 2.258,-9.015 3.387,-11.272 4.516,-25.946 1.128,-14.658 2.257,-18.044 -4.516,-24.817 -6.772,-6.757 -9.03,-4.514 -19.173,-13.529 -10.158,-9.03 -18.044,-14.658 -22.559,-25.946 -4.499,-11.272 -3.386,-11.272 4.515,-24.801 7.886,-13.545 16.915,-18.06 4.515,-33.847 -12.416,-15.787 -25.946,-29.316 -30.461,-23.688 -4.515,5.644 -5.628,6.772 -18.044,16.931 -12.401,10.143 -27.074,3.371 -16.916,20.302 10.143,16.916 10.143,21.415 12.401,36.089 2.257,14.658 3.386,18.044 -2.258,34.96 -5.628,16.916 -15.787,12.416 -9.014,28.203 6.757,15.787 5.644,13.53 6.757,24.817 1.144,11.272 4.515,11.272 -1.113,27.059 -5.644,15.802 -13.545,15.802 -9.03,28.203 4.515,12.4 21.43,21.431 18.044,28.203 -3.386,6.757 -2.257,-2.258 -18.044,0 -15.787,2.257 -28.203,-7.901 -27.075,2.257 1.129,10.144 0,14.659 0,14.659 0,0 -12.4,-3.387 -21.43,-11.288 -9.015,-7.886 -15.787,-10.143 -11.272,-21.431 4.515,-11.272 7.901,-13.529 9.014,-25.945 1.145,-12.401 -5.628,-13.53 0,-27.059 5.644,-13.545 13.545,-19.173 10.159,-32.703 -3.386,-13.545 -7.901,-27.074 -12.416,-41.748 -4.5,-14.658 7.901,-31.574 -4.5,-29.316 z m 69.92,228.965 c 0,-9.03 10.159,2.257 11.288,7.886 1.129,5.643 1.129,19.173 -4.515,12.415 -5.628,-6.772 -6.773,-11.287 -6.773,-20.301 z m 170.317,-109.411 c -2.257,12.416 -1.129,15.787 -5.659,27.074 -4.484,11.272 -11.257,13.53 -20.287,13.53 -9.014,0 2.258,-7.886 6.757,-27.074 4.531,-19.174 -3.371,-10.144 0,-21.416 3.402,-11.287 16.932,-12.416 16.932,-12.416 11.287,-3.386 4.514,7.901 2.257,20.302 z m 43.99,-64.292 c 7.901,3.386 -3.402,11.288 -10.143,15.802 -6.788,4.5 -7.917,-4.514 -12.417,-14.673 -4.514,-10.144 2.243,-18.045 2.243,-18.045 7.916,-4.514 12.431,13.53 20.317,16.916 z m -95.866,80.079 c 0,0 10.143,3.386 6.773,10.158 -3.402,6.773 -11.288,3.387 -5.644,13.53 5.644,10.159 2.242,24.817 -3.386,13.545 -5.644,-11.288 -4.515,4.499 -5.644,-11.288 -1.129,-15.787 -10.143,-23.688 7.901,-25.945 z"
           style="fill:#ffffff"
           id="path3" /></g><g
         id="g11"><g
           id="g7"><path
             d="m 1405.1,1319.49 61.571,61.571"
             style="fill:none;stroke:url(#_Linear2);stroke-width:20.66px"
             id="path4" /><path
             d="m 1345.8,1381.06 61.571,61.571"
             style="fill:none;stroke:url(#_Linear3);stroke-width:20.66px"
             id="path5" /><path
             d="m 1348.89,1385.42 61.571,-61.571"
             style="fill:none;stroke:url(#_Linear4);stroke-width:20.66px"
             id="path6" /><path
             d="m 1410.46,1446.99 61.571,-61.572"
             style="fill:none;stroke:url(#_Linear5);stroke-width:20.66px"
             id="path7" /></g><path
           d="m 1410.46,1324.62 c 0,0 99.094,-102.291 224.687,-231.937 87.405,-90.225 112.359,-223.983 63.367,-339.655 -48.992,-115.672 -162.426,-190.817 -288.046,-190.817 -0.01,0 -0.011,0 -0.016,0 -125.62,0 -239.054,75.145 -288.046,190.817 -48.992,115.672 -24.038,249.43 63.367,339.655 125.593,129.646 224.687,231.937 224.687,231.937 z"
           style="fill:none;stroke:#db261e;stroke-width:20.66px;stroke-linecap:square"
           id="path8" /><path
           d="m 1410.46,1446.22 c 0,0 99.094,102.291 224.687,231.936 87.405,90.225 112.359,223.984 63.367,339.656 -48.992,115.671 -162.426,190.816 -288.046,190.816 -0.01,0 -0.011,0 -0.016,0 -125.62,0 -239.054,-75.145 -288.046,-190.816 -48.992,-115.672 -24.038,-249.431 63.367,-339.656 125.593,-129.645 224.687,-231.936 224.687,-231.936 z"
           style="fill:none;stroke:#fab20b;stroke-width:20.66px;stroke-linecap:square"
           id="path9" /><path
           d="m 1349.66,1385.42 c 0,0 -102.291,-99.093 -231.937,-224.686 -90.225,-87.405 -223.984,-112.36 -339.655,-63.368 -115.672,48.992 -190.817,162.427 -190.817,288.046 0,0.01 0,0.011 0,0.017 0,125.619 75.145,239.053 190.817,288.045 115.671,48.992 249.43,24.038 339.655,-63.367 129.646,-125.593 231.937,-224.687 231.937,-224.687 z"
           style="fill:none;stroke:#68b92e;stroke-width:20.66px;stroke-linecap:square"
           id="path10" /><path
           d="m 1471.26,1385.42 c 0,0 102.291,-99.093 231.937,-224.686 90.225,-87.405 223.984,-112.36 339.655,-63.368 115.672,48.992 190.817,162.427 190.817,288.046 0,0.01 0,0.011 0,0.017 0,125.619 -75.145,239.053 -190.817,288.045 -115.671,48.992 -249.43,24.038 -339.655,-63.367 C 1573.551,1484.514 1471.26,1385.42 1471.26,1385.42 Z"
           style="fill:none;stroke:#005596;stroke-width:20.66px;stroke-linecap:square"
           id="path11" /></g><path
         d="m 1410.46,1501.05 c 0,0 84.842,87.58 192.372,198.58 74.834,77.248 96.199,191.769 54.254,290.804 -41.946,99.035 -139.065,163.372 -246.617,163.371 -0.01,0 -0.012,0 -0.018,0 -107.552,0 -204.671,-64.336 -246.617,-163.371 -41.945,-99.035 -20.58,-213.556 54.254,-290.804 107.53,-111 192.372,-198.58 192.372,-198.58 z"
         style="fill:#fab20b"
         id="path12" /><clipPath
         id="_clip6"><path
           d="m 1410.46,1501.05 c 0,0 84.842,87.58 192.372,198.58 74.834,77.248 96.199,191.769 54.254,290.804 -41.946,99.035 -139.065,163.372 -246.617,163.371 -0.01,0 -0.012,0 -0.018,0 -107.552,0 -204.671,-64.336 -246.617,-163.371 -41.945,-99.035 -20.58,-213.556 54.254,-290.804 107.53,-111 192.372,-198.58 192.372,-198.58 z"
           id="path13" /></clipPath><g
         clip-path="url(#_clip6)"
         id="g14"><path
           d="m 1355.09,1895.7 c 0.218,-1.058 0.267,-2.116 0,-3.154 -2.155,-8.659 -7.206,0 -12.257,-2.886 -5.042,-2.887 -8.65,1.443 -17.299,-3.608 -8.66,-5.052 0,0 -2.887,-5.052 -2.886,-5.041 -2.165,-5.041 -12.257,-7.206 -10.093,-2.165 -1.444,-5.773 0,-16.587 1.443,-10.815 6.484,-9.371 5.051,-18.743 -1.443,-9.381 -3.608,4.33 -8.659,8.65 -5.042,4.33 -1.444,6.494 -4.33,12.979 -2.877,6.495 -5.042,1.443 -6.485,7.928 -1.443,6.495 5.051,7.938 0.722,11.546 -4.33,3.608 -2.887,10.814 -7.216,17.299 -4.32,6.494 -7.928,3.608 -17.3,2.165 -9.371,-1.433 -7.216,-7.206 -9.371,-15.144 -2.164,-7.928 -0.731,-6.485 7.928,-10.093 8.65,-3.598 1.443,-5.773 -2.165,-14.422 -3.608,-8.65 -7.206,0.721 -9.371,-7.207 -2.165,-7.938 -7.216,-5.051 -15.144,-10.102 -7.938,-5.042 -10.093,-5.042 -15.144,-7.207 -5.041,-2.165 0.721,-6.485 8.649,-9.371 7.938,-2.886 7.938,3.598 18.031,7.928 10.103,4.33 7.216,0 12.979,-2.886 5.773,-2.877 7.928,-11.536 12.258,-15.135 4.33,-3.608 10.093,0 16.587,2.155 6.485,2.165 6.485,5.052 11.536,3.609 5.052,-1.444 0.722,-12.258 7.216,-19.474 6.485,-7.207 -2.886,-4.32 -10.092,-4.32 -7.216,0 -21.639,9.371 -32.453,5.051 -10.815,-4.33 -10.815,0 -19.474,2.155 -8.65,2.165 -10.093,1.443 -16.588,-7.206 -6.484,-8.66 -7.206,-7.928 -10.814,-22.351 -3.608,-14.422 -7.928,-7.216 -18.742,-12.257 -10.825,-5.052 -15.866,1.433 -24.516,0.721 -8.659,-0.721 -6.494,-4.329 3.599,-13.7 10.092,-9.382 5.773,-11.536 12.257,-18.753 6.495,-7.206 11.546,-5.051 20.917,-8.649 9.371,-3.608 10.093,-11.536 19.464,-18.031 9.372,-6.485 29.567,2.165 33.897,2.887 4.32,0.721 15.856,12.257 23.793,16.587 7.928,4.32 14.423,4.32 26.68,2.155 12.258,-2.155 0.722,12.268 5.052,21.639 4.319,9.371 3.598,8.649 -0.722,16.577 -4.33,7.938 0.148,27.797 -0.721,33.896 -0.722,5.042 7.206,15.866 14.422,38.938 7.206,23.072 1.443,-3.608 2.155,-12.257 0.722,-8.66 1.443,-10.815 5.773,-16.588 4.33,-5.763 0.721,5.042 5.041,15.866 3.411,8.521 1.463,10.785 2.59,15.589 0.307,1.295 0.821,2.758 1.74,4.596 4.33,8.66 0,0 3.608,8.66 3.598,8.649 10.093,7.928 25.959,7.928 15.865,0 9.371,-6.485 17.309,-18.752 7.927,-12.248 10.814,-9.372 17.299,-18.021 6.494,-8.65 7.938,-10.093 10.814,-20.186 2.887,-10.102 7.216,2.155 18.752,2.155 11.536,0 8.65,-5.773 18.031,-10.092 9.371,-4.33 5.041,-5.773 2.155,-8.66 -2.877,-2.876 -2.155,-5.041 7.216,-8.649 9.371,-3.599 10.814,-10.093 15.144,-12.98 4.33,-2.876 7.206,-2.155 18.021,-0.711 10.824,1.433 16.587,6.484 27.402,12.979 10.824,6.485 12.267,10.804 18.752,11.536 6.494,0.712 10.093,5.763 35.329,18.02 25.237,12.258 12.258,-2.164 23.072,5.052 10.825,7.206 15.144,2.155 23.072,2.155 7.938,0 -2.155,5.051 1.444,9.381 3.608,4.329 12.979,-2.165 12.979,-2.165 0,0 -0.712,185.317 0,193.977 0.731,8.649 -5.042,4.32 -6.485,10.093 -1.443,5.763 -5.051,10.093 -1.443,16.577 3.608,6.495 5.773,6.495 5.773,6.495 v 118.256 c -4.33,-1.443 -10.824,-8.659 -21.639,-23.793 -10.814,-15.145 -10.093,-7.217 -17.299,-16.588 -7.216,-9.371 -10.814,-4.329 -15.144,-10.093 -4.33,-5.772 -8.649,-4.329 -15.144,-2.164 -6.485,2.164 -12.258,4.329 -27.402,-1.444 -15.144,-5.773 4.33,-7.937 7.938,-20.917 3.598,-12.979 -2.165,-6.484 -12.267,-19.464 -10.093,-12.979 0.731,-6.494 -7.207,-15.144 -7.928,-8.649 0,-6.484 -5.773,-23.793 -5.763,-17.309 -5.041,-11.536 -4.32,-23.072 0.722,-11.536 -7.216,-12.98 -16.587,-24.516 -9.371,-11.546 -7.206,-11.546 -27.402,-27.401 -20.185,-15.866 -32.453,-15.866 -46.144,-18.031 -13.7,-2.165 -21.638,-10.814 -27.402,-14.422 -5.772,-3.608 -8.659,-4.32 -43.988,-10.093 -31.08,-5.071 -20.324,-12.93 -18.753,-20.64 z m 186.04,176.391 c 12.267,0 10.824,8.649 15.144,15.866 4.329,7.206 -6.485,14.422 -10.815,19.463 -4.329,5.052 -3.608,7.217 -10.093,13.701 -6.494,6.495 -15.865,3.608 -28.123,4.33 -12.257,0.722 -13.701,7.206 -9.381,-5.051 4.33,-12.258 1.443,-8.65 5.773,-20.186 4.33,-11.536 7.938,-10.093 11.536,-17.309 3.608,-7.206 18.199,-10.814 25.959,-10.814 z m -147.814,-302.853 c 0,0 2.877,5.773 10.093,2.165 7.206,-3.608 12.979,2.877 20.907,1.444 7.938,-1.444 4.33,2.876 17.309,2.164 12.979,-0.731 21.629,2.887 12.979,5.042 -8.659,2.165 -17.308,3.608 -25.236,2.886 -7.938,-0.721 -10.815,-0.721 -15.866,-2.886 -5.051,-2.155 -5.051,-2.887 -10.093,-2.155 -5.051,0.712 -16.587,-5.773 -10.093,-8.66 z m -7.216,-50.473 c -1.443,-2.887 12.258,-0.722 15.866,0.721 3.598,1.444 2.165,7.216 -0.722,13.701 -2.886,6.495 0,0 -5.051,-4.33 -5.041,-4.329 -10.093,-10.092 -10.093,-10.092 z m 24.515,2.165 c 7.216,-1.444 10.815,10.092 13.701,18.02 2.887,7.938 12.98,3.608 6.495,8.66 -6.495,5.051 -5.052,-2.165 -13.701,-2.165 -8.659,0 -5.773,0.722 -7.216,-7.938 -1.443,-8.65 0.721,-16.577 0.721,-16.577 z m -227.863,-20.196 c 0,0 -4.32,-5.763 -11.536,-8.649 -7.206,-2.887 -9.371,-10.815 0.722,-8.65 10.102,2.155 19.473,0 20.917,6.485 1.443,6.494 0,18.03 -10.103,10.814 z"
           style="fill:#ffffff"
           id="path14" /></g><path
         d="m 1294.83,1385.42 c 0,0 -87.58,-84.842 -198.58,-192.372 -77.248,-74.834 -191.768,-96.199 -290.803,-54.253 -99.035,41.945 -163.372,139.065 -163.372,246.616 0,0.01 0,0.012 0,0.018 0,107.552 64.337,204.671 163.372,246.617 99.035,41.946 213.555,20.58 290.803,-54.253 111,-107.531 198.58,-192.373 198.58,-192.373 z"
         style="fill:#68b92e"
         id="path15" /><clipPath
         id="_clip7"><path
           d="m 1294.83,1385.42 c 0,0 -87.58,-84.842 -198.58,-192.372 -77.248,-74.834 -191.768,-96.199 -290.803,-54.253 -99.035,41.945 -163.372,139.065 -163.372,246.616 0,0.01 0,0.012 0,0.018 0,107.552 64.337,204.671 163.372,246.617 99.035,41.946 213.555,20.58 290.803,-54.253 111,-107.531 198.58,-192.373 198.58,-192.373 z"
           id="path16" /></clipPath><g
         clip-path="url(#_clip7)"
         id="g17"><path
           d="m 743.115,1593.48 c -5.134,0.621 -8.866,1.022 -9.72,-2.404 -1.539,-6.157 -1.539,-10.005 -5.387,-6.157 -3.837,3.848 -10.763,11.534 -12.303,5.377 -1.539,-6.146 0,-3.838 -2.298,-13.062 -2.319,-9.235 -6.926,-8.466 -5.387,-16.92 1.539,-8.466 -3.078,-8.466 0,-17.691 3.068,-9.235 13.842,-5.386 3.068,-9.235 -10.764,-3.837 -18.449,-6.915 -14.601,-9.994 3.837,-3.067 12.303,-6.915 12.303,-13.842 0,-6.915 3.837,-4.607 -0.77,-12.302 -4.618,-7.686 -3.078,-8.455 -7.696,-12.304 -4.607,-3.837 -5.377,-13.072 -10.764,-6.915 -5.376,6.146 -6.915,8.455 -10.763,10.764 -3.848,2.308 -6.157,-5.388 -4.618,-10.005 1.539,-4.607 10.764,0.78 1.539,-4.607 -9.224,-5.387 -11.533,-7.696 -6.915,-10.764 4.607,-3.078 10.763,-5.387 1.539,-8.465 -9.235,-3.068 -14.622,0.77 -13.842,-9.994 0.759,-10.764 -1.539,-9.994 3.068,-16.151 4.617,-6.146 6.156,-9.225 4.617,-11.533 -1.539,-2.309 7.685,-12.303 0,-11.534 -7.685,0.77 -15.381,0.77 -15.381,-9.224 0,-10.005 -0.77,-5.387 0,-17.69 0.769,-12.313 -2.309,-6.926 1.539,-17.69 3.837,-10.764 0,-24.606 8.455,-29.223 8.466,-4.618 10.005,-9.225 10.005,-17.69 0,-8.455 6.146,-15.381 11.533,-5.377 0,0 -2.309,18.449 5.377,25.375 7.695,6.916 5.387,2.309 14.611,14.612 9.235,12.303 -1.539,16.151 10.005,19.999 11.533,3.837 23.066,3.837 30.762,0 7.685,-3.848 7.685,-8.466 17.68,-5.387 10.004,3.068 3.078,-0.77 19.229,3.068 16.151,3.847 16.151,0.78 24.605,-3.068 8.455,-3.848 2.309,-13.842 10.764,-20.769 8.465,-6.915 12.303,-9.224 24.606,-13.072 12.303,-3.848 10.004,2.309 16.92,8.466 6.926,6.145 3.848,9.224 14.612,11.533 10.774,2.308 17.69,6.146 23.836,2.308 6.157,-3.847 1.539,-13.083 19.229,-14.622 l 0.981,-0.074 c 16.941,-1.454 23.614,-1.602 22.855,-9.15 -0.759,-7.686 -2.298,-9.994 7.696,-14.612 9.994,-4.607 6.146,-12.303 14.612,-21.527 8.455,-9.225 -7.686,-25.386 5.376,-33.071 13.083,-7.686 15.381,-3.079 18.46,-13.842 3.078,-10.764 -0.77,-7.696 5.387,-16.921 6.146,-9.224 -3.078,-9.994 1.539,-19.988 4.607,-10.005 2.298,-13.842 2.298,-20.768 0,-6.916 8.466,-6.146 17.69,-5.377 9.235,0.77 6.157,-10.005 17.69,-6.926 11.534,3.078 12.303,0.77 23.836,0.77 11.534,0 46.144,4.617 40.757,7.695 -5.377,3.079 -17.68,4.618 -11.533,9.994 6.156,5.388 -0.77,6.147 9.994,9.225 10.774,3.078 16.15,0 10.774,7.696 -5.387,7.685 -7.696,3.848 -15.381,5.387 -7.696,1.529 -21.538,-3.078 -16.151,1.529 5.376,4.617 16.151,0 16.92,4.617 0.77,4.607 -10.763,3.078 -3.848,6.916 6.927,3.848 10.764,-3.068 6.927,3.848 -3.848,6.926 -10.005,0.769 -11.544,6.146 -1.539,5.387 5.387,-0.759 7.696,7.696 2.308,8.465 1.539,10.764 6.926,16.15 5.377,5.377 -3.078,3.838 6.146,13.073 9.225,9.225 20.758,9.994 17.69,16.151 -3.078,6.146 -15.381,1.539 -15.381,11.533 0,9.994 -2.309,9.994 5.376,16.92 7.696,6.916 6.157,6.916 16.151,13.073 9.994,6.157 6.157,9.224 13.842,12.303 7.696,3.078 7.696,7.696 13.842,13.072 6.157,5.387 18.46,3.848 8.455,9.225 -9.994,5.387 -3.837,13.083 -16.91,6.926 -13.072,-6.146 -12.313,0 -20.768,-3.078 -8.455,-3.068 -11.533,-7.686 -13.072,-2.309 -1.54,5.387 -3.848,-10.764 -9.225,2.309 -5.387,13.072 -10.764,16.151 -13.842,26.145 -3.078,10.004 -8.465,12.313 -3.078,18.459 5.387,6.157 -6.927,12.303 -1.539,18.46 5.387,6.146 3.078,4.607 7.695,14.611 4.618,9.994 10.764,10.764 0.77,16.151 -9.994,5.377 -10.774,5.377 -16.151,6.916 -5.387,1.539 -6.926,4.617 -11.543,11.533 -4.608,6.926 1.539,11.533 -4.608,6.926 -6.156,-4.617 0,-8.465 -6.156,-4.617 -6.146,3.848 0.769,3.078 -4.607,8.465 -5.387,5.377 -1.539,4.607 -11.533,12.293 -10.005,7.695 -15.382,1.539 -13.842,10.004 1.528,8.455 11.533,-0.769 10.763,7.685 -0.769,8.455 2.309,6.916 -1.539,12.304 -3.848,5.386 -4.618,1.539 1.539,9.234 l 1.929,2.33 c 4.323,5.103 4.449,4.628 0.38,10.732 -4.618,6.927 -12.314,-2.298 -9.235,9.235 3.078,11.534 1.539,12.303 0,17.69 -1.539,5.377 -10.764,-12.303 -12.303,-2.308 -1.539,9.994 5.387,7.685 5.387,13.842 0,6.146 -3.078,3.078 -6.157,13.072 -3.078,9.994 0,16.151 -19.988,20.758 -19.999,4.618 -23.846,6.926 -36.919,15.381 -13.072,8.465 -20.758,7.696 -19.988,0 0.759,-7.685 3.068,-0.759 1.539,-13.062 -1.539,-12.313 6.916,-18.46 -2.309,-18.46 -8.94,0 -1.349,1.424 -12.028,-2.677 l -1.044,-0.401 c -12.313,-4.617 -6.157,-8.465 -16.92,-3.848 -10.764,4.618 -18.46,17.69 -17.69,4.618 0.769,-13.073 8.465,-11.533 0.769,-13.073 -7.685,-1.539 -3.848,-7.696 -7.685,-1.539 -3.848,6.157 -11.544,9.225 -13.083,3.848 -1.539,-5.387 5.387,-0.769 -1.539,-5.387 -6.916,-4.618 -6.916,-14.612 -10.764,-5.387 -3.837,9.235 -4.607,16.92 -13.073,17.69 -8.454,0.77 -9.224,1.539 -19.218,0.77 -10.005,-0.77 -10.764,-3.848 -13.842,2.308 -3.078,6.157 0,13.073 -7.696,10.764 -7.685,-2.309 0,-3.068 -2.309,-12.303 -2.298,-9.224 3.848,-13.072 0.78,-17.69 -3.078,-4.607 -0.78,-2.298 -11.543,-3.837 -10.764,-1.539 -4.618,-3.848 -10.764,-1.539 -6.157,2.298 -6.916,7.685 -18.46,5.376 -5.102,-1.012 -10.046,-0.379 -14.116,0.106 z m -129.68,-20.864 c 2.298,2.309 2.298,6.147 -2.309,13.842 -4.618,7.686 3.067,11.534 -1.539,13.073 -4.618,1.539 -4.618,6.146 -9.235,4.607 -4.618,-1.529 -6.916,-3.068 -10.764,-5.377 -3.848,-2.308 -7.696,4.618 -9.225,3.079 -1.539,-1.54 0.77,-6.927 -0.769,-14.612 -1.539,-7.696 2.298,-7.696 2.298,-12.303 0,-4.617 0,-6.157 7.696,-10.005 7.685,-3.848 11.533,3.848 11.533,3.848 3.848,-3.848 10.005,1.54 12.314,3.848 z m 399.879,56.138 c 1.539,-6.926 6.157,-29.993 11.533,-22.307 0,0 -1.539,1.539 -0.769,10.004 0.769,8.455 -5.377,6.146 -2.309,15.371 3.078,9.235 4.618,20.768 -2.298,14.622 -6.926,-6.157 -7.696,-10.774 -6.157,-17.69 z"
           style="fill:#ffffff"
           id="path17" /></g><path
         d="m 1526.08,1385.42 c 0,0 87.58,-84.842 198.58,-192.372 77.248,-74.834 191.768,-96.199 290.803,-54.253 99.035,41.945 163.372,139.065 163.372,246.616 0,0.01 0,0.012 0,0.018 0,107.552 -64.337,204.671 -163.372,246.617 -99.035,41.946 -213.555,20.58 -290.803,-54.253 -111,-107.531 -198.58,-192.373 -198.58,-192.373 z"
         style="fill:#005596"
         id="path18" /><clipPath
         id="_clip8"><path
           d="m 1526.08,1385.42 c 0,0 87.58,-84.842 198.58,-192.372 77.248,-74.834 191.768,-96.199 290.803,-54.253 99.035,41.945 163.372,139.065 163.372,246.616 0,0.01 0,0.012 0,0.018 0,107.552 -64.337,204.671 -163.372,246.617 -99.035,41.946 -213.555,20.58 -290.803,-54.253 -111,-107.531 -198.58,-192.373 -198.58,-192.373 z"
           id="path19" /></clipPath><g
         clip-path="url(#_clip8)"
         id="g20"><path
           d="m 2094.99,1534.47 c 18.059,12.4 20.301,25.945 21.446,38.346 1.113,12.4 9.014,22.559 -1.145,19.173 -10.143,-3.386 -32.702,-14.658 -48.489,-21.431 -15.787,-6.757 -13.529,-5.643 -15.787,-16.915 -2.258,-11.288 -5.644,-7.901 -16.931,-3.387 -11.272,4.515 -10.143,-6.757 -10.143,-1.128 0,5.643 -4.515,11.287 -6.773,14.673 -2.242,3.371 -7.901,-1.144 -16.916,-9.03 -9.029,-7.901 -18.044,1.129 -24.801,-13.529 -6.772,-14.674 0,0 -4.515,5.628 -4.515,5.644 -6.772,1.129 -11.288,10.159 -4.499,9.03 -13.529,1.128 -27.058,2.257 -13.545,1.129 0,0 -3.387,-12.416 -3.386,-12.4 -6.772,-5.628 -13.544,-11.272 -6.757,-5.644 -15.787,32.703 -21.431,31.574 -5.628,-1.113 5.644,-11.272 7.901,-31.574 2.258,-20.302 0,0 6.773,-11.287 6.757,-11.272 7.886,-6.757 22.544,-12.401 14.673,-5.644 33.846,3.386 47.376,-4.515 13.545,-7.886 5.643,3.386 7.901,14.658 2.257,11.288 13.529,-2.242 25.946,-13.529 12.4,-11.272 15.786,-1.129 29.316,10.159 13.545,11.271 16.916,7.885 32.702,5.628 15.803,-2.258 20.303,10.159 20.303,10.159 z m -249.251,16.915 c 10.142,1.129 2.257,14.674 -5.644,24.817 -7.901,10.159 -11.272,6.757 -25.946,9.014 -14.658,2.258 -13.529,4.516 -32.703,-5.628 -19.173,-10.159 -10.158,-5.644 -12.415,-13.529 -2.258,-7.902 -11.272,-11.288 -11.272,-25.946 0,-14.674 16.915,-7.901 37.217,-11.287 20.302,-3.387 14.658,-3.387 25.946,1.128 11.272,4.516 18.044,2.258 19.173,13.545 1.128,11.272 5.644,7.886 5.644,7.886 z m 85.707,-212.034 c 10.158,23.673 -20.302,0 -29.317,-16.931 -9.03,-16.915 -5.644,-13.529 -16.916,-31.573 -11.287,-18.045 -5.643,-16.916 -3.386,-32.703 2.258,-15.802 -5.643,-13.545 -9.029,-38.362 -3.372,-24.801 -4.5,-11.271 -12.401,-32.702 -7.902,-21.431 0,-10.144 1.128,-28.204 1.129,-18.044 2.258,-20.301 11.273,-33.831 9.029,-13.529 27.074,-33.831 30.46,-33.831 3.386,0 2.258,9.014 -10.159,22.544 -12.401,13.545 -5.628,10.159 4.515,14.673 10.159,4.5 4.515,7.886 5.644,25.946 1.129,18.044 -2.258,10.144 -12.416,27.059 -10.144,16.916 -12.401,11.287 -10.144,22.559 2.258,11.288 6.773,4.516 24.818,-11.272 18.044,-15.787 7.885,-5.643 9.029,-15.787 1.114,-10.158 -5.643,-10.158 6.757,-22.559 12.401,-12.416 40.604,-19.188 37.218,-11.287 -3.371,7.885 2.258,16.915 2.258,24.817 0,7.885 -9.031,15.787 -19.174,28.187 -10.158,12.417 -16.915,7.901 -6.757,24.817 10.143,16.931 20.302,13.545 29.317,20.302 9.029,6.772 3.386,10.158 -9.015,11.288 -12.416,1.128 -16.931,-10.159 -30.46,-11.288 -13.545,-1.129 -11.288,-10.143 -24.817,-5.628 -13.53,4.499 -2.258,14.658 -2.258,24.801 0,10.159 -1.129,16.916 3.386,31.589 4.516,14.658 9.03,15.787 14.659,28.188 5.643,12.416 15.787,19.188 15.787,19.188 z m 197.39,11.273 c 2.258,11.287 -3.386,32.702 -15.787,33.846 -12.416,1.114 -7.901,-11.287 -11.287,-22.559 -3.386,-11.287 27.074,-11.287 27.074,-11.287 z m -57.519,65.405 c 18.044,1.144 11.272,22.559 -3.386,25.961 -14.658,3.371 -11.288,1.113 -23.689,-4.515 -12.415,-5.644 -3.386,-10.159 11.288,-13.545 14.658,-3.386 15.787,-7.901 15.787,-7.901 z m -219.935,-111.653 c 0,0 3.371,4.515 12.401,1.129 9.015,-3.386 19.173,-13.53 14.658,0 -4.515,13.545 -13.529,18.044 -4.515,21.431 9.03,3.386 12.416,-3.387 18.06,9.029 5.628,12.401 -2.257,16.916 -14.674,9.015 -12.4,-7.886 -14.658,-4.515 -18.044,-16.916 -3.387,-12.4 -20.302,-27.074 -7.886,-23.688 z m 30.445,71.065 c 0,0 -5.643,12.4 7.902,15.786 13.529,3.387 18.044,5.644 22.559,11.272 4.5,5.644 11.272,16.932 -3.386,13.53 -14.674,-3.371 -16.916,4.515 -30.461,2.257 -13.529,-2.257 -25.946,-3.37 -21.43,-14.658 4.514,-11.272 7.901,-6.757 13.529,-14.658 5.644,-7.901 -2.242,-23.688 11.287,-13.529 z m -169.187,51.875 c -6.773,-11.287 0,-11.287 0,-11.287 0,0 11.272,7.901 25.945,2.257 14.658,-5.628 12.401,0 22.56,2.258 10.143,2.257 20.301,2.257 13.529,10.159 -6.757,7.885 -9.014,2.257 -19.173,-1.129 -10.143,-3.387 -10.143,0 -28.187,3.386 -18.061,3.371 -14.674,-5.644 -14.674,-5.644 z m -27.075,-7.885 c 13.545,0 16.931,4.499 13.545,11.272 -3.386,6.772 -10.159,2.257 -23.688,3.386 -13.529,1.128 -23.688,2.242 -39.475,1.128 -15.802,-1.128 1.129,-6.772 -4.515,-19.188 -5.628,-12.401 7.901,-3.371 20.302,-7.886 12.416,-4.515 10.159,5.644 20.302,4.515 10.158,-1.129 13.529,6.773 13.529,6.773 z"
           style="fill:#ffffff"
           id="path20" /></g></g><g
       id="g61"
       transform="translate(-18.018018,-36.036036)"><g
         id="g30"><path
           d="m 2472.2,1655.22 v -537.297 h 103.621 v 287.533 l 194.195,-287.533 h 127.416 l -197.265,212.616 203.405,324.681 h -126.648 l -151.211,-244.086 -49.892,53.729 v 190.357 z"
           style="fill:#1c2713;fill-rule:nonzero"
           id="path21" /><path
           d="m 2937.34,1655.22 196.497,-537.297 h 117.438 l 195.729,537.297 h -109.762 l -145.07,-419.091 -145.838,419.091 z m 86.735,-122.043 27.632,-80.595 223.072,22.188 77.047,58.407 z"
           style="fill:#1c2713;fill-rule:nonzero"
           id="path22" /><path
           d="m 3702.61,1664.43 c -38.89,0 -73.559,-6.653 -104.006,-19.957 -30.446,-13.305 -54.497,-32.75 -72.151,-58.335 -17.654,-25.586 -26.737,-56.544 -27.248,-92.876 h 109.761 c 0.512,15.863 4.606,30.191 12.282,42.984 7.675,12.793 18.293,22.899 31.854,30.319 13.56,7.42 29.807,11.13 48.74,11.13 16.375,0 30.575,-2.687 42.6,-8.06 12.025,-5.373 21.364,-12.921 28.016,-22.643 6.652,-9.723 9.978,-21.236 9.978,-34.541 0,-15.351 -3.709,-28.144 -11.129,-38.378 -7.42,-10.234 -17.654,-18.933 -30.703,-26.097 -13.049,-7.164 -28.144,-13.688 -45.286,-19.573 -17.143,-5.885 -35.18,-12.153 -54.114,-18.805 -42.472,-13.817 -74.837,-32.238 -97.097,-55.265 -22.259,-23.027 -33.389,-53.474 -33.389,-91.341 0,-32.237 7.804,-59.87 23.411,-82.897 15.607,-23.027 37.227,-40.681 64.859,-52.962 27.633,-12.281 59.103,-18.421 94.411,-18.421 36.331,0 68.185,6.268 95.562,18.805 27.376,12.537 49.124,30.575 65.243,54.113 16.119,23.539 24.434,51.171 24.946,82.897 h -110.53 c -0.511,-11.769 -3.965,-22.899 -10.362,-33.389 -6.396,-10.49 -15.223,-18.933 -26.481,-25.329 -11.258,-6.397 -24.562,-9.595 -39.913,-9.595 -13.305,-0.512 -25.458,1.535 -36.46,6.141 -11.002,4.605 -19.701,11.385 -26.097,20.34 -6.396,8.955 -9.595,20.085 -9.595,33.389 0,12.793 3.199,23.539 9.595,32.238 6.396,8.699 15.223,16.247 26.481,22.643 11.258,6.397 24.562,12.281 39.913,17.654 15.352,5.373 31.982,10.874 49.892,16.503 26.609,9.211 51.171,20.085 73.687,32.622 22.515,12.536 40.425,28.783 53.729,48.74 13.305,19.957 19.957,46.31 19.957,79.059 0,28.144 -7.42,54.242 -22.259,78.292 -14.84,24.05 -36.204,43.495 -64.092,58.335 -27.888,14.84 -62.557,22.26 -104.005,22.26 z"
           style="fill:#1c2713;fill-rule:nonzero"
           id="path23" /><path
           d="m 4189.24,1664.43 c -39.402,0 -75.222,-7.932 -107.46,-23.795 -32.237,-15.863 -57.823,-39.658 -76.756,-71.384 -18.934,-31.726 -28.4,-72.151 -28.4,-121.275 v -330.054 h 103.621 v 330.821 c 0,26.609 4.35,48.997 13.049,67.162 8.699,18.166 21.364,31.599 37.994,40.298 16.631,8.699 36.46,13.048 59.487,13.048 23.538,0 43.623,-4.349 60.254,-13.048 16.63,-8.699 29.295,-22.132 37.994,-40.298 8.699,-18.165 13.049,-40.553 13.049,-67.162 v -330.821 h 103.621 v 330.054 c 0,49.124 -9.722,89.549 -29.167,121.275 -19.445,31.726 -45.67,55.521 -78.676,71.384 -33.005,15.863 -69.209,23.795 -108.61,23.795 z"
           style="fill:#1c2713;fill-rule:nonzero"
           id="path24" /><path
           d="m 4507.01,1655.22 v -537.297 h 103.622 l -52.993,481.593 288.635,-24.891 v 80.595 z"
           style="fill:#1c2713;fill-rule:nonzero"
           id="path25" /><path
           d="m 4899.24,1655.22 196.497,-537.297 h 117.438 l 195.729,537.297 h -109.761 l -145.071,-419.091 -145.837,419.091 z m 86.735,-122.043 27.633,-80.595 265.545,38.54 34.573,42.055 z"
           style="fill:#1c2713;fill-rule:nonzero"
           id="path26" /><path
           d="m 5479.52,1655.22 v -537.297 h 123.578 l 164.259,356.393 162.724,-356.393 h 123.578 v 537.297 h -103.621 v -360.756 l -142,285.534 h -82.13 l -142.767,-285.534 v 360.756 z"
           style="fill:#1c2713;fill-rule:nonzero"
           id="path27" /><path
           d="m 6159.58,1655.22 v -537.297 h 201.103 c 43.495,0 79.571,7.42 108.227,22.26 28.655,14.839 49.891,34.796 63.708,59.87 13.816,25.074 20.724,53.73 20.724,85.967 0,29.68 -6.652,57.056 -19.957,82.13 -13.304,25.074 -34.284,45.414 -62.94,61.021 -28.656,15.608 -65.243,23.411 -109.762,23.411 l -97.481,-23.411 v 226.049 z m 103.622,-286.303 h 91.34 c 33.261,0 57.184,-7.547 71.768,-22.643 14.583,-15.095 21.875,-35.18 21.875,-60.254 0,-26.609 -7.292,-47.205 -21.875,-61.789 -14.584,-14.584 -38.507,-21.875 -71.768,-21.875 h -91.34 z"
           style="fill:#1c2713;fill-rule:nonzero"
           id="path28" /><path
           d="m 6838.88,1664.43 c -39.402,0 -75.222,-7.932 -107.46,-23.795 -32.238,-15.863 -57.823,-39.658 -76.756,-71.384 -18.934,-31.726 -28.4,-72.151 -28.4,-121.275 v -330.054 h 103.621 v 330.821 c 0,26.609 4.35,48.997 13.049,67.162 8.699,18.166 21.364,31.599 37.994,40.298 16.631,8.699 36.46,13.048 59.487,13.048 23.538,0 43.623,-4.349 60.254,-13.048 16.63,-8.699 29.295,-22.132 37.994,-40.298 8.699,-18.165 13.049,-40.553 13.049,-67.162 v -330.821 h 103.621 v 330.054 c 0,49.124 -9.722,89.549 -29.167,121.275 -19.445,31.726 -45.67,55.521 -78.676,71.384 -33.005,15.863 -69.209,23.795 -108.61,23.795 z"
           style="fill:#1c2713;fill-rule:nonzero"
           id="path29" /><path
           d="m 7097.55,1655.22 196.497,-537.297 h 117.438 l 195.729,537.297 h -109.762 l -145.07,-419.091 -145.837,419.091 z m 86.735,-122.043 80.115,-44.215 220.771,-36.38 26.865,80.595 z"
           style="fill:#1c2713;fill-rule:nonzero"
           id="path30" /></g><g
         id="g60"><path
           d="m 2480.34,1958.06 v -170.113 h 32.807 v 67.316 l 61.484,-67.316 h 40.341 l -62.455,67.316 64.4,102.797 h -40.099 l -47.874,-77.28 -15.797,17.011 v 60.269 z"
           style="fill:#1c2713;fill-rule:nonzero"
           id="path31" /><path
           d="m 2627.61,1958.06 62.213,-170.113 h 37.182 l 61.97,170.113 h -34.752 l -45.93,-132.689 -46.174,132.689 z m 27.462,-38.64 8.748,-25.517 h 86.515 l 8.506,25.517 z"
           style="fill:#1c2713;fill-rule:nonzero"
           id="path32" /><path
           d="m 2811.34,1958.06 v -170.113 h 32.807 v 144.596 h 74.607 v 25.517 z"
           style="fill:#1c2713;fill-rule:nonzero"
           id="path33" /><rect
           x="2946.9399"
           y="1787.95"
           width="32.807999"
           height="170.11301"
           style="fill:#1c2713;fill-rule:nonzero"
           id="rect33" /><path
           d="m 3013.04,1958.06 v -170.113 h 39.126 l 52.007,106.199 51.52,-106.199 h 39.126 v 170.113 h -32.808 v -114.219 l -44.958,90.403 h -26.004 l -45.201,-90.403 v 114.219 z"
           style="fill:#1c2713;fill-rule:nonzero"
           id="path34" /><path
           d="m 3216.93,1958.06 62.213,-170.113 h 37.182 l 61.97,170.113 h -34.752 l -45.93,-132.689 -46.174,132.689 z m 27.461,-38.64 8.749,-25.517 h 86.515 l 8.506,25.517 z"
           style="fill:#1c2713;fill-rule:nonzero"
           id="path35" /><path
           d="m 3400.66,1958.06 v -170.113 h 32.807 l 78.252,117.378 v -117.378 h 32.808 v 170.113 h -32.808 l -78.252,-117.135 v 117.135 z"
           style="fill:#1c2713;fill-rule:nonzero"
           id="path36" /><path
           d="m 3617.43,1958.06 v -143.624 h -49.819 v -26.489 h 131.959 v 26.489 h -49.576 v 143.624 z"
           style="fill:#1c2713;fill-rule:nonzero"
           id="path37" /><path
           d="m 3693.49,1958.06 62.213,-170.113 h 37.182 l 61.97,170.113 h -34.752 l -45.93,-132.689 -46.174,132.689 z m 27.462,-38.64 8.748,-25.517 h 86.515 l 8.506,25.517 z"
           style="fill:#1c2713;fill-rule:nonzero"
           id="path38" /><path
           d="m 3877.22,1958.06 v -170.113 h 32.807 l 78.252,117.378 v -117.378 h 32.808 v 170.113 h -32.808 l -78.252,-117.135 v 117.135 z"
           style="fill:#1c2713;fill-rule:nonzero"
           id="path39" /><path
           d="m 4141.62,1910.67 c -6.156,0 -11.746,-1.499 -16.768,-4.496 -5.022,-2.997 -9.032,-7.047 -12.029,-12.151 -2.998,-5.103 -4.496,-10.733 -4.496,-16.89 0,-6.318 1.498,-12.029 4.496,-17.132 2.997,-5.104 7.007,-9.154 12.029,-12.151 5.022,-2.998 10.612,-4.496 16.768,-4.496 6.319,0 12.03,1.498 17.133,4.496 5.104,2.997 9.154,7.047 12.151,12.151 2.997,5.103 4.496,10.814 4.496,17.132 0,6.157 -1.499,11.787 -4.496,16.89 -2.997,5.104 -7.047,9.154 -12.151,12.151 -5.103,2.997 -10.814,4.496 -17.133,4.496 z"
           style="fill:#db261e;fill-rule:nonzero"
           id="path40" /><path
           d="m 4321.21,1960.98 c -12.313,0 -23.289,-2.106 -32.929,-6.318 -9.639,-4.213 -17.254,-10.369 -22.844,-18.47 -5.589,-8.101 -8.465,-17.902 -8.627,-29.405 h 34.752 c 0.162,5.022 1.458,9.559 3.888,13.609 2.431,4.05 5.792,7.25 10.086,9.599 4.293,2.349 9.437,3.524 15.431,3.524 5.185,0 9.681,-0.851 13.488,-2.552 3.807,-1.701 6.764,-4.091 8.87,-7.169 2.106,-3.078 3.159,-6.723 3.159,-10.936 0,-4.86 -1.174,-8.91 -3.523,-12.151 -2.35,-3.24 -5.59,-5.994 -9.721,-8.262 -4.132,-2.269 -8.911,-4.334 -14.338,-6.197 -5.428,-1.863 -11.139,-3.848 -17.133,-5.954 -13.447,-4.375 -23.695,-10.207 -30.742,-17.498 -7.048,-7.29 -10.571,-16.93 -10.571,-28.919 0,-10.207 2.47,-18.955 7.412,-26.246 4.941,-7.291 11.786,-12.88 20.535,-16.768 8.748,-3.889 18.712,-5.833 29.891,-5.833 11.503,0 21.588,1.985 30.256,5.954 8.668,3.97 15.553,9.681 20.657,17.133 5.103,7.453 7.736,16.201 7.898,26.246 h -34.995 c -0.162,-3.726 -1.256,-7.25 -3.281,-10.571 -2.025,-3.321 -4.82,-5.995 -8.384,-8.02 -3.564,-2.025 -7.777,-3.038 -12.637,-3.038 -4.212,-0.162 -8.06,0.486 -11.543,1.945 -3.484,1.458 -6.238,3.604 -8.263,6.44 -2.025,2.835 -3.038,6.359 -3.038,10.571 0,4.05 1.013,7.453 3.038,10.207 2.025,2.754 4.82,5.144 8.384,7.169 3.564,2.025 7.777,3.888 12.637,5.589 4.861,1.701 10.126,3.443 15.796,5.225 8.425,2.916 16.202,6.359 23.33,10.328 7.129,3.97 12.799,9.114 17.012,15.432 4.212,6.319 6.318,14.662 6.318,25.031 0,8.911 -2.349,17.173 -7.048,24.788 -4.698,7.615 -11.462,13.771 -20.292,18.469 -8.829,4.699 -19.806,7.048 -32.929,7.048 z"
           style="fill:#1c2713;fill-rule:nonzero"
           id="path41" /><path
           d="m 4475.28,1960.98 c -12.475,0 -23.816,-2.511 -34.022,-7.534 -10.207,-5.022 -18.308,-12.556 -24.302,-22.6 -5.995,-10.045 -8.992,-22.844 -8.992,-38.397 v -104.498 h 32.808 v 104.741 c 0,8.424 1.377,15.512 4.131,21.264 2.754,5.751 6.764,10.004 12.029,12.758 5.266,2.755 11.544,4.132 18.834,4.132 7.453,0 13.812,-1.377 19.077,-4.132 5.266,-2.754 9.276,-7.007 12.03,-12.758 2.754,-5.752 4.131,-12.84 4.131,-21.264 v -104.741 h 32.808 v 104.498 c 0,15.553 -3.079,28.352 -9.235,38.397 -6.157,10.044 -14.46,17.578 -24.909,22.6 -10.45,5.023 -21.913,7.534 -34.388,7.534 z"
           style="fill:#1c2713;fill-rule:nonzero"
           id="path42" /><path
           d="m 4575.9,1958.06 v -170.113 h 32.808 v 144.596 h 74.607 v 25.517 z"
           style="fill:#1c2713;fill-rule:nonzero"
           id="path43" /><path
           d="m 4700.08,1958.06 62.213,-170.113 h 37.182 l 61.969,170.113 h -34.751 l -45.931,-132.689 -46.173,132.689 z m 27.461,-38.64 8.749,-25.517 h 86.514 l 8.506,25.517 z"
           style="fill:#1c2713;fill-rule:nonzero"
           id="path44" /><path
           d="m 4901.06,1958.06 -44.716,-170.113 h 34.995 l 29.648,132.931 34.995,-132.931 h 36.21 l 34.022,132.931 29.892,-132.931 h 35.237 l -45.93,170.113 h -39.126 l -32.565,-123.94 -33.779,123.94 z"
           style="fill:#1c2713;fill-rule:nonzero"
           id="path45" /><path
           d="m 5114.18,1958.06 v -170.113 h 111.789 v 26.489 h -78.981 v 44.472 h 71.69 v 25.517 h -71.69 v 47.146 h 78.981 v 26.489 z"
           style="fill:#1c2713;fill-rule:nonzero"
           id="path46" /><path
           d="m 5314.43,1960.98 c -12.313,0 -23.29,-2.106 -32.929,-6.318 -9.64,-4.213 -17.255,-10.369 -22.844,-18.47 -5.59,-8.101 -8.465,-17.902 -8.627,-29.405 h 34.751 c 0.162,5.022 1.459,9.559 3.889,13.609 2.43,4.05 5.792,7.25 10.085,9.599 4.293,2.349 9.437,3.524 15.432,3.524 5.184,0 9.68,-0.851 13.487,-2.552 3.808,-1.701 6.764,-4.091 8.87,-7.169 2.107,-3.078 3.16,-6.723 3.16,-10.936 0,-4.86 -1.175,-8.91 -3.524,-12.151 -2.349,-3.24 -5.59,-5.994 -9.721,-8.262 -4.131,-2.269 -8.911,-4.334 -14.338,-6.197 -5.427,-1.863 -11.138,-3.848 -17.133,-5.954 -13.447,-4.375 -23.694,-10.207 -30.742,-17.498 -7.047,-7.29 -10.571,-16.93 -10.571,-28.919 0,-10.207 2.471,-18.955 7.412,-26.246 4.941,-7.291 11.786,-12.88 20.535,-16.768 8.749,-3.889 18.713,-5.833 29.891,-5.833 11.503,0 21.589,1.985 30.256,5.954 8.668,3.97 15.554,9.681 20.657,17.133 5.103,7.453 7.736,16.201 7.898,26.246 h -34.995 c -0.162,-3.726 -1.255,-7.25 -3.28,-10.571 -2.026,-3.321 -4.82,-5.995 -8.385,-8.02 -3.564,-2.025 -7.776,-3.038 -12.637,-3.038 -4.212,-0.162 -8.06,0.486 -11.543,1.945 -3.483,1.458 -6.237,3.604 -8.263,6.44 -2.025,2.835 -3.037,6.359 -3.037,10.571 0,4.05 1.012,7.453 3.037,10.207 2.026,2.754 4.82,5.144 8.385,7.169 3.564,2.025 7.776,3.888 12.637,5.589 4.86,1.701 10.125,3.443 15.796,5.225 8.424,2.916 16.201,6.359 23.33,10.328 7.128,3.97 12.799,9.114 17.011,15.432 4.212,6.319 6.318,14.662 6.318,25.031 0,8.911 -2.349,17.173 -7.047,24.788 -4.699,7.615 -11.463,13.771 -20.292,18.469 -8.83,4.699 -19.806,7.048 -32.929,7.048 z"
           style="fill:#1c2713;fill-rule:nonzero"
           id="path47" /><rect
           x="5402.6499"
           y="1787.95"
           width="32.807999"
           height="170.11301"
           style="fill:#1c2713;fill-rule:nonzero"
           id="rect47" /><path
           d="m 5555.99,1910.67 c -6.157,0 -11.746,-1.499 -16.769,-4.496 -5.022,-2.997 -9.032,-7.047 -12.029,-12.151 -2.997,-5.103 -4.496,-10.733 -4.496,-16.89 0,-6.318 1.499,-12.029 4.496,-17.132 2.997,-5.104 7.007,-9.154 12.029,-12.151 5.023,-2.998 10.612,-4.496 16.769,-4.496 6.318,0 12.029,1.498 17.132,4.496 5.104,2.997 9.154,7.047 12.151,12.151 2.998,5.103 4.496,10.814 4.496,17.132 0,6.157 -1.498,11.787 -4.496,16.89 -2.997,5.104 -7.047,9.154 -12.151,12.151 -5.103,2.997 -10.814,4.496 -17.132,4.496 z"
           style="fill:#30418c;fill-rule:nonzero"
           id="path48" /><path
           d="m 5677.01,1958.06 v -170.113 h 39.126 l 52.006,106.199 51.52,-106.199 h 39.126 v 170.113 h -32.807 v -114.219 l -44.959,90.403 h -26.003 l -45.201,-90.403 v 114.219 z"
           style="fill:#1c2713;fill-rule:nonzero"
           id="path49" /><path
           d="m 5880.91,1958.06 62.213,-170.113 h 37.182 l 61.969,170.113 h -34.751 l -45.931,-132.689 -46.173,132.689 z m 27.461,-38.64 8.749,-25.517 h 86.514 l 8.506,25.517 z"
           style="fill:#1c2713;fill-rule:nonzero"
           id="path50" /><path
           d="m 6064.63,1958.06 v -170.113 h 32.808 v 144.596 h 74.607 v 25.517 z"
           style="fill:#1c2713;fill-rule:nonzero"
           id="path51" /><path
           d="m 6258.8,1960.98 c -12.475,0 -23.816,-2.511 -34.022,-7.534 -10.207,-5.022 -18.308,-12.556 -24.302,-22.6 -5.995,-10.045 -8.992,-22.844 -8.992,-38.397 v -104.498 h 32.808 v 104.741 c 0,8.424 1.377,15.512 4.131,21.264 2.754,5.751 6.764,10.004 12.029,12.758 5.266,2.755 11.544,4.132 18.834,4.132 7.453,0 13.812,-1.377 19.077,-4.132 5.266,-2.754 9.276,-7.007 12.03,-12.758 2.754,-5.752 4.131,-12.84 4.131,-21.264 v -104.741 h 32.808 v 104.498 c 0,15.553 -3.079,28.352 -9.235,38.397 -6.157,10.044 -14.46,17.578 -24.91,22.6 -10.449,5.023 -21.912,7.534 -34.387,7.534 z"
           style="fill:#1c2713;fill-rule:nonzero"
           id="path52" /><path
           d="m 6359.41,1958.06 v -170.113 h 32.808 v 67.316 l 61.483,-67.316 h 40.342 l -62.456,67.316 64.4,102.797 h -40.098 l -47.875,-77.28 -15.796,17.011 v 60.269 z"
           style="fill:#1c2713;fill-rule:nonzero"
           id="path53" /><path
           d="m 6583.96,1960.98 c -12.475,0 -23.816,-2.511 -34.023,-7.534 -10.207,-5.022 -18.307,-12.556 -24.302,-22.6 -5.994,-10.045 -8.992,-22.844 -8.992,-38.397 v -104.498 h 32.808 v 104.741 c 0,8.424 1.377,15.512 4.131,21.264 2.754,5.751 6.764,10.004 12.03,12.758 5.265,2.755 11.543,4.132 18.834,4.132 7.452,0 13.811,-1.377 19.077,-4.132 5.265,-2.754 9.275,-7.007 12.029,-12.758 2.754,-5.752 4.131,-12.84 4.131,-21.264 v -104.741 h 32.808 v 104.498 c 0,15.553 -3.078,28.352 -9.235,38.397 -6.156,10.044 -14.459,17.578 -24.909,22.6 -10.45,5.023 -21.912,7.534 -34.387,7.534 z"
           style="fill:#1c2713;fill-rule:nonzero"
           id="path54" /><path
           d="m 6771.81,1910.67 c -6.156,0 -11.746,-1.499 -16.768,-4.496 -5.022,-2.997 -9.032,-7.047 -12.03,-12.151 -2.997,-5.103 -4.495,-10.733 -4.495,-16.89 0,-6.318 1.498,-12.029 4.495,-17.132 2.998,-5.104 7.008,-9.154 12.03,-12.151 5.022,-2.998 10.612,-4.496 16.768,-4.496 6.319,0 12.03,1.498 17.133,4.496 5.103,2.997 9.154,7.047 12.151,12.151 2.997,5.103 4.496,10.814 4.496,17.132 0,6.157 -1.499,11.787 -4.496,16.89 -2.997,5.104 -7.048,9.154 -12.151,12.151 -5.103,2.997 -10.814,4.496 -17.133,4.496 z"
           style="fill:#fab20b;fill-rule:nonzero"
           id="path55" /><path
           d="m 6892.84,1958.06 v -170.113 h 63.671 c 13.771,0 25.193,2.349 34.265,7.047 9.073,4.698 15.797,11.017 20.171,18.956 4.374,7.938 6.561,17.011 6.561,27.218 0,9.396 -2.106,18.064 -6.318,26.003 -4.212,7.938 -10.855,14.378 -19.928,19.32 -9.072,4.941 -20.656,7.412 -34.751,7.412 h -30.864 v 64.157 z m 32.807,-90.646 h 28.919 c 10.531,0 18.105,-2.39 22.723,-7.169 4.617,-4.78 6.926,-11.139 6.926,-19.077 0,-8.425 -2.309,-14.946 -6.926,-19.563 -4.618,-4.618 -12.192,-6.926 -22.723,-6.926 h -28.919 z"
           style="fill:#1c2713;fill-rule:nonzero"
           id="path56" /><path
           d="m 7012.89,1958.06 62.213,-170.113 h 37.182 l 61.97,170.113 h -34.752 l -45.931,-132.689 -46.173,132.689 z m 27.461,-38.64 8.749,-25.517 h 86.515 l 8.505,25.517 z"
           style="fill:#1c2713;fill-rule:nonzero"
           id="path57" /><path
           d="m 7196.61,1958.06 v -170.113 h 63.671 c 13.771,0 25.193,2.349 34.266,7.047 9.073,4.698 15.796,11.017 20.171,18.956 4.374,7.938 6.561,17.011 6.561,27.218 0,9.396 -2.106,18.064 -6.318,26.003 -4.213,7.938 -10.855,14.378 -19.928,19.32 -9.073,4.941 -20.657,7.412 -34.752,7.412 h -30.863 v 64.157 z m 32.808,-90.646 h 28.919 c 10.531,0 18.105,-2.39 22.722,-7.169 4.618,-4.78 6.926,-11.139 6.926,-19.077 0,-8.425 -2.308,-14.946 -6.926,-19.563 -4.617,-4.618 -12.191,-6.926 -22.722,-6.926 h -28.919 z"
           style="fill:#1c2713;fill-rule:nonzero"
           id="path58" /><path
           d="m 7411.68,1960.98 c -12.475,0 -23.816,-2.511 -34.023,-7.534 -10.206,-5.022 -18.307,-12.556 -24.301,-22.6 -5.995,-10.045 -8.992,-22.844 -8.992,-38.397 v -104.498 h 32.807 v 104.741 c 0,8.424 1.378,15.512 4.132,21.264 2.754,5.751 6.764,10.004 12.029,12.758 5.266,2.755 11.544,4.132 18.834,4.132 7.453,0 13.812,-1.377 19.077,-4.132 5.266,-2.754 9.275,-7.007 12.03,-12.758 2.754,-5.752 4.131,-12.84 4.131,-21.264 v -104.741 h 32.807 v 104.498 c 0,15.553 -3.078,28.352 -9.234,38.397 -6.157,10.044 -14.46,17.578 -24.91,22.6 -10.45,5.023 -21.912,7.534 -34.387,7.534 z"
           style="fill:#1c2713;fill-rule:nonzero"
           id="path59" /><path
           d="m 7493.58,1958.06 62.213,-170.113 h 37.182 l 61.97,170.113 h -34.752 l -45.93,-132.689 -46.174,132.689 z m 27.462,-38.64 8.748,-25.517 h 86.515 l 8.506,25.517 z"
           style="fill:#1c2713;fill-rule:nonzero"
           id="path60" /></g></g><g
       id="g70"
       transform="translate(-18.018018,-36.036036)"><path
         d="M 2472.2,1029.51 V 805.906 h 43.123 v 88.484 l 80.817,-88.484 h 53.026 l -82.094,88.484 84.65,135.12 h -52.707 l -62.928,-101.58 -20.764,22.361 v 79.219 z"
         style="fill:#1c2713;fill-rule:nonzero"
         id="path61" /><path
         d="m 2767.35,1033.34 c -21.722,0 -40.888,-4.898 -57.498,-14.694 -16.611,-9.796 -29.601,-23.371 -38.971,-40.727 -9.37,-17.356 -14.055,-37.427 -14.055,-60.214 0,-22.786 4.685,-42.857 14.055,-60.213 9.37,-17.356 22.36,-30.932 38.971,-40.728 16.61,-9.796 35.776,-14.694 57.498,-14.694 21.934,0 41.207,4.898 57.817,14.694 16.611,9.796 29.548,23.372 38.812,40.728 9.263,17.356 13.895,37.427 13.895,60.213 0,22.787 -4.632,42.858 -13.895,60.214 -9.264,17.356 -22.201,30.931 -38.812,40.727 -16.61,9.796 -35.883,14.694 -57.817,14.694 z m 0,-38.651 c 13.629,0 25.395,-3.141 35.297,-9.423 9.903,-6.283 17.622,-15.174 23.159,-26.673 5.537,-11.5 8.306,-25.129 8.306,-40.888 0,-15.971 -2.769,-29.654 -8.306,-41.047 -5.537,-11.393 -13.256,-20.178 -23.159,-26.353 -9.902,-6.176 -21.668,-9.264 -35.297,-9.264 -13.416,0 -25.129,3.088 -35.138,9.264 -10.009,6.175 -17.782,14.96 -23.319,26.353 -5.536,11.393 -8.305,25.076 -8.305,41.047 0,15.759 2.769,29.388 8.305,40.888 5.537,11.499 13.31,20.39 23.319,26.673 10.009,6.282 21.722,9.423 35.138,9.423 z"
         style="fill:#1c2713;fill-rule:nonzero"
         id="path62" /><path
         d="M 2914.61,1029.51 V 805.906 h 43.123 l 102.858,154.287 V 805.906 h 43.124 v 223.604 h -43.124 L 2957.733,875.543 v 153.967 z"
         style="fill:#1c2713;fill-rule:nonzero"
         id="path63" /><path
         d="M 3147.48,1029.51 V 805.906 h 83.373 c 18.101,0 33.008,3.088 44.72,9.264 11.713,6.176 20.444,14.428 26.194,24.756 5.75,10.328 8.625,21.775 8.625,34.339 0,11.926 -2.769,23.053 -8.306,33.381 -5.536,10.328 -14.214,18.634 -26.034,24.916 -11.819,6.282 -26.992,9.423 -45.519,9.423 h -39.929 v 87.525 z m 115.955,0 -45.999,-98.385 h 46.638 l 48.554,98.385 z m -72.831,-118.829 h 37.693 c 12.99,0 22.573,-3.195 28.749,-9.583 6.176,-6.389 9.264,-14.801 9.264,-25.236 0,-10.434 -3.035,-18.686 -9.104,-24.756 -6.069,-6.069 -15.706,-9.104 -28.909,-9.104 h -37.693 z"
         style="fill:#1c2713;fill-rule:nonzero"
         id="path64" /><path
         d="M 3349.04,1029.51 V 805.906 h 146.94 v 34.819 h -103.816 v 58.456 h 94.233 v 33.541 h -94.233 v 61.97 h 103.816 v 34.818 z"
         style="fill:#1c2713;fill-rule:nonzero"
         id="path65" /><path
         d="m 3633.34,1033.34 c -21.295,0 -39.822,-4.738 -55.581,-14.214 -15.759,-9.477 -28.004,-22.787 -36.735,-39.93 -8.731,-17.143 -13.097,-37.107 -13.097,-59.894 0,-22.999 4.472,-43.283 13.416,-60.852 8.945,-17.569 21.828,-31.357 38.652,-41.366 16.823,-10.009 36.948,-15.014 60.373,-15.014 26.194,0 47.968,6.282 65.324,18.847 17.356,12.564 28.59,30.027 33.701,52.387 h -48.235 c -3.194,-9.796 -9.104,-17.516 -17.729,-23.159 -8.624,-5.643 -19.751,-8.465 -33.38,-8.465 -14.481,0 -26.833,3.194 -37.055,9.583 -10.222,6.389 -17.995,15.333 -23.318,26.832 -5.324,11.5 -7.986,25.236 -7.986,41.207 0,16.185 2.662,29.921 7.986,41.207 5.323,11.287 12.937,19.859 22.839,25.715 9.903,5.856 21.562,8.784 34.978,8.784 19.592,0 34.446,-5.27 44.561,-15.812 10.116,-10.541 16.132,-24.223 18.048,-41.047 h -54.943 v -32.263 h 98.386 v 123.621 h -39.929 l -3.194,-28.429 c -4.685,7.027 -10.169,12.937 -16.451,17.728 -6.282,4.792 -13.576,8.412 -21.882,10.861 -8.305,2.449 -17.888,3.673 -28.749,3.673 z"
         style="fill:#1c2713;fill-rule:nonzero"
         id="path66" /><path
         d="M 3858.86,1029.51 V 805.906 h 83.692 c 18.101,0 33.114,3.088 45.04,9.264 11.925,6.176 20.763,14.481 26.513,24.916 5.75,10.435 8.624,22.36 8.624,35.776 0,12.352 -2.768,23.745 -8.305,34.18 -5.537,10.435 -14.268,18.9 -26.193,25.395 -11.926,6.495 -27.152,9.743 -45.679,9.743 h -40.569 v 84.33 z m 43.123,-119.149 h 38.013 c 13.842,0 23.798,-3.141 29.867,-9.423 6.069,-6.282 9.104,-14.641 9.104,-25.076 0,-11.073 -3.035,-19.645 -9.104,-25.714 -6.069,-6.069 -16.025,-9.104 -29.867,-9.104 h -38.013 z"
         style="fill:#1c2713;fill-rule:nonzero"
         id="path67" /><path
         d="M 4054.99,1029.51 V 805.906 h 74.748 c 25.981,0 47.436,4.632 64.366,13.896 16.93,9.263 29.494,22.254 37.693,38.971 8.199,16.717 12.298,36.362 12.298,58.935 0,22.574 -4.099,42.219 -12.298,58.936 -8.199,16.717 -20.71,29.707 -37.533,38.971 -16.824,9.263 -38.333,13.895 -64.526,13.895 z m 43.124,-37.054 h 29.388 c 18.314,0 32.742,-2.982 43.283,-8.944 10.541,-5.963 18.048,-14.535 22.52,-25.715 4.472,-11.18 6.708,-24.543 6.708,-40.089 0,-15.758 -2.236,-29.228 -6.708,-40.408 -4.472,-11.18 -11.979,-19.752 -22.52,-25.715 -10.541,-5.962 -24.969,-8.944 -43.283,-8.944 h -29.388 z"
         style="fill:#1c2713;fill-rule:nonzero"
         id="path68" /><path
         d="M 4280.83,1029.51 V 805.906 h 83.372 c 18.102,0 33.009,3.088 44.721,9.264 11.713,6.176 20.444,14.428 26.194,24.756 5.75,10.328 8.625,21.775 8.625,34.339 0,11.926 -2.769,23.053 -8.306,33.381 -5.537,10.328 -14.215,18.634 -26.034,24.916 -11.819,6.282 -26.992,9.423 -45.519,9.423 h -39.929 v 87.525 z m 115.955,0 -45.999,-98.385 h 46.638 l 48.554,98.385 z m -72.831,-118.829 h 37.693 c 12.99,0 22.573,-3.195 28.749,-9.583 6.176,-6.389 9.264,-14.801 9.264,-25.236 0,-10.434 -3.035,-18.686 -9.104,-24.756 -6.069,-6.069 -15.706,-9.104 -28.909,-9.104 h -37.693 z"
         style="fill:#1c2713;fill-rule:nonzero"
         id="path69" /><path
         d="M 4482.39,1029.51 V 805.906 h 91.678 c 15.545,0 28.642,2.449 39.29,7.347 10.648,4.898 18.687,11.66 24.117,20.284 5.431,8.625 8.146,18.581 8.146,29.868 0,11.286 -2.449,20.763 -7.347,28.429 -4.898,7.667 -11.34,13.576 -19.326,17.729 -7.986,4.152 -16.77,6.548 -26.353,7.187 l 5.111,-3.514 c 10.222,0.426 19.325,3.141 27.311,8.146 7.986,5.004 14.268,11.659 18.847,19.964 4.578,8.306 6.868,17.356 6.868,27.152 0,11.926 -2.875,22.467 -8.625,31.624 -5.75,9.157 -14.055,16.345 -24.916,21.562 -10.861,5.217 -24.17,7.826 -39.929,7.826 z m 43.124,-35.138 h 44.72 c 11.713,0 20.764,-2.661 27.152,-7.985 6.389,-5.324 9.583,-12.991 9.583,-23 0,-10.009 -3.301,-17.835 -9.902,-23.478 -6.602,-5.643 -15.759,-8.465 -27.471,-8.465 h -44.082 z m 0,-95.191 h 41.526 c 11.287,0 19.858,-2.555 25.714,-7.666 5.857,-5.111 8.785,-12.352 8.785,-21.722 0,-9.157 -2.928,-16.344 -8.785,-21.562 -5.856,-5.217 -14.534,-7.826 -26.033,-7.826 h -41.207 z"
         style="fill:#1c2713;fill-rule:nonzero"
         id="path70" /></g></g><defs
     id="defs81"><linearGradient
       id="_Linear2"
       x1="0"
       y1="0"
       x2="1"
       y2="0"
       gradientUnits="userSpaceOnUse"
       gradientTransform="matrix(61.5712,0,0,61.5712,1405.1,1350.27)"><stop
         offset="0"
         style="stop-color:#db261e;stop-opacity:1"
         id="stop71" /><stop
         offset="0.51"
         style="stop-color:#a6313b;stop-opacity:1"
         id="stop72" /><stop
         offset="1"
         style="stop-color:#005596;stop-opacity:1"
         id="stop73" /></linearGradient><linearGradient
       id="_Linear3"
       x1="0"
       y1="0"
       x2="1"
       y2="0"
       gradientUnits="userSpaceOnUse"
       gradientTransform="matrix(61.5712,0,0,61.5712,1345.8,1411.84)"><stop
         offset="0"
         style="stop-color:#68b92e;stop-opacity:1"
         id="stop74" /><stop
         offset="0.51"
         style="stop-color:#8bb726;stop-opacity:1"
         id="stop75" /><stop
         offset="1"
         style="stop-color:#fab20b;stop-opacity:1"
         id="stop76" /></linearGradient><linearGradient
       id="_Linear4"
       x1="0"
       y1="0"
       x2="1"
       y2="0"
       gradientUnits="userSpaceOnUse"
       gradientTransform="matrix(61.5712,0,0,-61.5712,1348.89,1354.63)"><stop
         offset="0"
         style="stop-color:#68b92e;stop-opacity:1"
         id="stop77" /><stop
         offset="0.51"
         style="stop-color:#84962a;stop-opacity:1"
         id="stop78" /><stop
         offset="1"
         style="stop-color:#db261e;stop-opacity:1"
         id="stop79" /></linearGradient><linearGradient
       id="_Linear5"
       x1="0"
       y1="0"
       x2="1"
       y2="0"
       gradientUnits="userSpaceOnUse"
       gradientTransform="matrix(61.5712,0,0,-61.5712,1410.46,1416.2)"><stop
         offset="0"
         style="stop-color:#fab20b;stop-opacity:1"
         id="stop80" /><stop
         offset="1"
         style="stop-color:#005596;stop-opacity:1"
         id="stop81" /></linearGradient></defs></svg>
